# xmcd CD database file
# Copyright (C) 1993-1996 Ti Kan
#
# Track frame offsets:
#  150
#  42120
#  58088
#  75017
#  94995
#  121039
#  134456
#  158647
#  174140
#  189173
#
# Disc length: 2653 seconds
#
# Revision: 1
# Processed by: cddbd v1.5.2PL0 Copyright (c) Steve Scherf et al.
# Submitted via: Advanced CD Ripper Pro 2.0
#
DISCID=6a0a5b0a
DTITLE=Eco do Pantanal - Eco do Pantanal ao vivo
DYEAR=2008
DGENRE=Country
TTITLE0=Poputpourri chamamé
TTITLE1=Arueira Pica-pau
TTITLE2=Barulho da cama
TTITLE3=Uma noite sem voce
TTITLE4=A viola fala alto - comitiva esperança
TTITLE5=Sistema dos caras
TTITLE6=Eu quero é mais
TTITLE7=Track08
TTITLE8=Pout-pourri guaraneas
TTITLE9=Amor a primeira vista
EXTD=
EXTT0=
EXTT1=
EXTT2=
EXTT3=
EXTT4=
EXTT5=
EXTT6=
EXTT7=
EXTT8=
EXTT9=
PLAYORDER=
